<svg xmlns="http://www.w3.org/2000/svg" xmlns:xlink="http://www.w3.org/1999/xlink" version="1.1" xml:space="preserve" viewBox="0 -0.01 909.07 560.26">
<desc>Created with Fabric.js 3.5.0</desc>
<defs>
</defs>
<rect x="0" y="0" width="100%" height="100%" fill="rgba(255,255,255,0)"/>
<g transform="matrix(-1.8328 0 0 1.8328 454.5344 280.1343)" id="366730">
<g style="" vector-effect="non-scaling-stroke">
		<g transform="matrix(1 0 0 1 17.6 -60.049)" id="Layer_1">
<path style="stroke: none; stroke-width: 1; stroke-dasharray: none; stroke-linecap: butt; stroke-dashoffset: 0; stroke-linejoin: miter; stroke-miterlimit: 4; is-custom-font: none; font-file-url: none; fill: rgb(129,123,102); fill-rule: nonzero; opacity: 1;" transform=" translate(-265.6, -187.956)" d="M 252 275.156 c -12 0 -22.4 -10.4 -22.4 -22.4 v -129.6 c 0 -12 10.4 -22.4 22.4 -22.4 h 49.6 v 27.2 H 256 v 124.8 c 0 -2.4 -2.4 -4.8 -4.8 -4.8 v 27.2 H 252 z" stroke-linecap="round"/>
</g>
		<g transform="matrix(1 0 0 1 -4.8 -46.449)" id="Layer_1">
<path style="stroke: none; stroke-width: 1; stroke-dasharray: none; stroke-linecap: butt; stroke-dashoffset: 0; stroke-linejoin: miter; stroke-miterlimit: 4; is-custom-font: none; font-file-url: none; fill: rgb(109,107,100); fill-rule: nonzero; opacity: 1;" transform=" translate(-243.2, -201.556)" d="M 252 127.956 c -12 0 -22.4 10.4 -22.4 22.4 v 102.4 c 0 12 10.4 22.4 22.4 22.4 v -27.2 c 2.4 0 4.8 2.4 4.8 4.8 v -97.6 v -27.2 H 252 z" stroke-linecap="round"/>
</g>
		<g transform="matrix(1 0 0 1 52 -132.849)" id="Layer_1">
<path style="stroke: none; stroke-width: 1; stroke-dasharray: none; stroke-linecap: butt; stroke-dashoffset: 0; stroke-linejoin: miter; stroke-miterlimit: 4; is-custom-font: none; font-file-url: none; fill: rgb(109,107,100); fill-rule: nonzero; opacity: 1;" transform=" translate(-300, -115.156)" d="M 304.8 130.356 c 0 2.4 -2.4 4.8 -4.8 4.8 l 0 0 c -2.4 0 -4.8 -2.4 -4.8 -4.8 v -30.4 c 0 -2.4 2.4 -4.8 4.8 -4.8 l 0 0 c 2.4 0 4.8 2.4 4.8 4.8 V 130.356 z" stroke-linecap="round"/>
</g>
		<g transform="matrix(1 0 0 1 1.2 -37.649)" id="Layer_1">
<path style="stroke: none; stroke-width: 1; stroke-dasharray: none; stroke-linecap: butt; stroke-dashoffset: 0; stroke-linejoin: miter; stroke-miterlimit: 4; is-custom-font: none; font-file-url: none; fill: rgb(255,174,11); fill-rule: nonzero; opacity: 1;" transform=" translate(-249.2, -210.356)" d="M 320.8 235.156 c 0 3.2 -2.4 5.6 -5.6 5.6 h -132 c -3.2 0 -5.6 -2.4 -5.6 -5.6 l 12 -49.6 c 0 -3.2 2.4 -5.6 5.6 -5.6 h 101.6 c 3.2 0 5.6 2.4 5.6 5.6 L 320.8 235.156 z" stroke-linecap="round"/>
</g>
		<g transform="matrix(1 0 0 1 0.8 -1.649)" id="Layer_1">
<path style="stroke: none; stroke-width: 1; stroke-dasharray: none; stroke-linecap: butt; stroke-dashoffset: 0; stroke-linejoin: miter; stroke-miterlimit: 4; is-custom-font: none; font-file-url: none; fill: rgb(255,208,13); fill-rule: nonzero; opacity: 1;" transform=" translate(-248.8, -246.356)" d="M 357.6 283.956 c 0 4.8 -4 8.8 -8.8 8.8 h -200 c -4.8 0 -8.8 -4 -8.8 -8.8 l 17.6 -75.2 c 0 -4.8 4 -8.8 8.8 -8.8 h 155.2 c 4.8 0 8.8 4 8.8 8.8 L 357.6 283.956 z" stroke-linecap="round"/>
</g>
		<g transform="matrix(1 0 0 1 0.8 3.151)" id="Layer_1">
<path style="stroke: none; stroke-width: 1; stroke-dasharray: none; stroke-linecap: butt; stroke-dashoffset: 0; stroke-linejoin: miter; stroke-miterlimit: 4; is-custom-font: none; font-file-url: none; fill: rgb(255,174,11); fill-rule: nonzero; opacity: 1;" transform=" translate(-248.8, -251.156)" d="M 357.6 288.756 c 0 4.8 -4 8.8 -8.8 8.8 h -200 c -4.8 0 -8.8 -4 -8.8 -8.8 l 17.6 -75.2 c 0 -4.8 4 -8.8 8.8 -8.8 h 155.2 c 4.8 0 8.8 4 8.8 8.8 L 357.6 288.756 z" stroke-linecap="round"/>
</g>
		<g transform="matrix(1 0 0 1 -182.4 123.5313)" id="Layer_1">
<path style="stroke: none; stroke-width: 1; stroke-dasharray: none; stroke-linecap: butt; stroke-dashoffset: 0; stroke-linejoin: miter; stroke-miterlimit: 4; is-custom-font: none; font-file-url: none; fill: rgb(122,132,135); fill-rule: nonzero; opacity: 1;" transform=" translate(-65.6, -371.5362)" d="M 71.2 371.156 c 0 5.6 -1.6 10.4 -4 10.4 c -1.6 0 -7.2 -9.6 -7.2 -15.2 s 5.6 -4.8 7.2 -4.8 C 69.6 361.556 71.2 365.556 71.2 371.156 z" stroke-linecap="round"/>
</g>
		<g transform="matrix(1 0 0 1 -182.4 142.7948)" id="Layer_1">
<path style="stroke: none; stroke-width: 1; stroke-dasharray: none; stroke-linecap: butt; stroke-dashoffset: 0; stroke-linejoin: miter; stroke-miterlimit: 4; is-custom-font: none; font-file-url: none; fill: rgb(122,132,135); fill-rule: nonzero; opacity: 1;" transform=" translate(-65.6, -390.7998)" d="M 60 391.156 c 0 -5.6 1.6 -10.4 4 -10.4 c 1.6 0 7.2 9.6 7.2 15.2 s -5.6 4.8 -7.2 4.8 C 61.6 401.556 60 396.756 60 391.156 z" stroke-linecap="round"/>
</g>
		<g transform="matrix(1 0 0 1 -143.6 133.551)" id="Layer_1">
<path style="stroke: none; stroke-width: 1; stroke-dasharray: none; stroke-linecap: butt; stroke-dashoffset: 0; stroke-linejoin: miter; stroke-miterlimit: 4; is-custom-font: none; font-file-url: none; fill: rgb(89,101,104); fill-rule: nonzero; opacity: 1;" transform=" translate(-104.4, -381.556)" d="M 143.2 381.556 c 0 1.6 -1.6 3.2 -3.2 3.2 H 68.8 c -1.6 0 -3.2 -1.6 -3.2 -3.2 l 0 0 c 0 -1.6 1.6 -3.2 3.2 -3.2 H 140 C 141.6 378.356 143.2 379.156 143.2 381.556 L 143.2 381.556 z" stroke-linecap="round"/>
</g>
		<g transform="matrix(1 0 0 1 -36.4 132.351)" id="Layer_1">
<path style="stroke: none; stroke-width: 1; stroke-dasharray: none; stroke-linecap: butt; stroke-dashoffset: 0; stroke-linejoin: miter; stroke-miterlimit: 4; is-custom-font: none; font-file-url: none; fill: rgb(122,132,135); fill-rule: nonzero; opacity: 1;" transform=" translate(-211.6, -380.356)" d="M 314.4 390.356 c 0 4.8 -4 8.8 -8.8 8.8 h -188 c -4.8 0 -8.8 -4 -8.8 -8.8 v -20 c 0 -4.8 4 -8.8 8.8 -8.8 h 188 c 4.8 0 8.8 4 8.8 8.8 V 390.356 z" stroke-linecap="round"/>
</g>
		<g transform="matrix(1 0 0 1 -25.2 132.351)" id="Layer_1">
<path style="stroke: none; stroke-width: 1; stroke-dasharray: none; stroke-linecap: butt; stroke-dashoffset: 0; stroke-linejoin: miter; stroke-miterlimit: 4; is-custom-font: none; font-file-url: none; fill: rgb(89,101,104); fill-rule: nonzero; opacity: 1;" transform=" translate(-222.8, -380.356)" d="M 325.6 390.356 c 0 4.8 -4 8.8 -8.8 8.8 h -188 c -4.8 0 -8.8 -4 -8.8 -8.8 v -20 c 0 -4.8 4 -8.8 8.8 -8.8 h 188 c 4.8 0 8.8 4 8.8 8.8 L 325.6 390.356 L 325.6 390.356 z" stroke-linecap="round"/>
</g>
		<g transform="matrix(1 0 0 1 -212.8 34.351)" id="Layer_1">
<path style="stroke: none; stroke-width: 1; stroke-dasharray: none; stroke-linecap: butt; stroke-dashoffset: 0; stroke-linejoin: miter; stroke-miterlimit: 4; is-custom-font: none; font-file-url: none; fill: rgb(255,208,13); fill-rule: nonzero; opacity: 1;" transform=" translate(-35.2, -282.356)" d="M 70.4 285.556 c 0 20 -38.4 36.8 -49.6 36.8 S 0 305.556 0 285.556 s 2.4 -43.2 13.6 -43.2 C 25.6 242.356 70.4 265.556 70.4 285.556 z" stroke-linecap="round"/>
</g>
		<g transform="matrix(1 0 0 1 -220.8 34.351)" id="Layer_1">
<path style="stroke: none; stroke-width: 1; stroke-dasharray: none; stroke-linecap: butt; stroke-dashoffset: 0; stroke-linejoin: miter; stroke-miterlimit: 4; is-custom-font: none; font-file-url: none; fill: rgb(255,174,11); fill-rule: nonzero; opacity: 1;" transform=" translate(-27.2, -282.356)" d="M 54.4 285.556 c 0 20 -21.6 36.8 -33.6 36.8 S 0 305.556 0 285.556 s 2.4 -43.2 13.6 -43.2 C 25.6 242.356 54.4 265.556 54.4 285.556 z" stroke-linecap="round"/>
</g>
		<g transform="matrix(1 0 0 1 0.8 75.551)" id="Layer_1">
<path style="stroke: none; stroke-width: 1; stroke-dasharray: none; stroke-linecap: butt; stroke-dashoffset: 0; stroke-linejoin: miter; stroke-miterlimit: 4; is-custom-font: none; font-file-url: none; fill: rgb(255,208,13); fill-rule: nonzero; opacity: 1;" transform=" translate(-248.8, -323.556)" d="M 496 315.156 c 0 37.6 -39.2 84.8 -176 84.8 c -136 0 -318.4 -47.2 -318.4 -84.8 s 110.4 -68 247.2 -68 C 385.6 247.156 496 277.556 496 315.156 z" stroke-linecap="round"/>
</g>
		<g transform="matrix(1 0 0 1 0.8 82.351)" id="Layer_1">
<path style="stroke: none; stroke-width: 1; stroke-dasharray: none; stroke-linecap: butt; stroke-dashoffset: 0; stroke-linejoin: miter; stroke-miterlimit: 4; is-custom-font: none; font-file-url: none; fill: rgb(255,174,11); fill-rule: nonzero; opacity: 1;" transform=" translate(-248.8, -330.356)" d="M 496 315.156 c 0 37.6 -39.2 84.8 -176 84.8 c -136 0 -318.4 -47.2 -318.4 -84.8 s 129.6 -54.4 265.6 -54.4 C 404 260.756 496 277.556 496 315.156 z" stroke-linecap="round"/>
</g>
		<g transform="matrix(1 0 0 1 0.8 109.551)" id="Layer_1">
<path style="stroke: none; stroke-width: 1; stroke-dasharray: none; stroke-linecap: butt; stroke-dashoffset: 0; stroke-linejoin: miter; stroke-miterlimit: 4; is-custom-font: none; font-file-url: none; fill: rgb(255,134,13); fill-rule: nonzero; opacity: 1;" transform=" translate(-248.8, -357.556)" d="M 496 315.156 c 0 37.6 -39.2 84.8 -176 84.8 c -136 0 -318.4 -47.2 -318.4 -84.8" stroke-linecap="round"/>
</g>
		<g transform="matrix(1 0 0 1 -85.6 79.951)" id="Layer_1">
<path style="stroke: none; stroke-width: 1; stroke-dasharray: none; stroke-linecap: butt; stroke-dashoffset: 0; stroke-linejoin: miter; stroke-miterlimit: 4; is-custom-font: none; font-file-url: none; fill: rgb(229,106,14); fill-rule: nonzero; opacity: 1;" transform=" translate(-162.4, -327.956)" d="M 162.4 354.356 c -12 0 -21.6 -19.2 -21.6 -31.2 s 9.6 -21.6 21.6 -21.6 s 21.6 9.6 21.6 21.6 S 174.4 354.356 162.4 354.356 z" stroke-linecap="round"/>
</g>
		<g transform="matrix(1 0 0 1 -85.6 75.951)" id="Layer_1">
<path style="stroke: none; stroke-width: 1; stroke-dasharray: none; stroke-linecap: butt; stroke-dashoffset: 0; stroke-linejoin: miter; stroke-miterlimit: 4; is-custom-font: none; font-file-url: none; fill: rgb(119,172,191); fill-rule: nonzero; opacity: 1;" transform=" translate(-162.4, -323.956)" d="M 162.4 345.556 c -12 0 -21.6 -9.6 -21.6 -21.6 s 9.6 -21.6 21.6 -21.6 s 21.6 9.6 21.6 21.6 S 174.4 345.556 162.4 345.556 z" stroke-linecap="round"/>
</g>
		<g transform="matrix(1 0 0 1 -85.6 75.151)" id="Layer_1">
<path style="stroke: none; stroke-width: 1; stroke-dasharray: none; stroke-linecap: butt; stroke-dashoffset: 0; stroke-linejoin: miter; stroke-miterlimit: 4; is-custom-font: none; font-file-url: none; fill: rgb(232,217,24); fill-rule: nonzero; opacity: 1;" transform=" translate(-162.4, -323.156)" d="M 162.4 303.956 c 11.2 0 20 8.8 20 20 s -8.8 20 -20 20 s -20 -8.8 -20 -20 S 152 303.956 162.4 303.956 M 162.4 299.156 c -13.6 0 -24 11.2 -24 24 c 0 13.6 11.2 24 24 24 c 13.6 0 24 -11.2 24 -24 C 186.4 310.356 176 299.156 162.4 299.156 L 162.4 299.156 z" stroke-linecap="round"/>
</g>
		<g transform="matrix(1 0 0 1 -85.6 81.151)" id="Layer_1">
<path style="stroke: none; stroke-width: 1; stroke-dasharray: none; stroke-linecap: butt; stroke-dashoffset: 0; stroke-linejoin: miter; stroke-miterlimit: 4; is-custom-font: none; font-file-url: none; fill: rgb(83,154,173); fill-rule: nonzero; opacity: 1;" transform=" translate(-162.4, -329.156)" d="M 142.4 323.156 c 0 11.2 8.8 20 20 20 s 20 -8.8 20 -20 c 0 -3.2 -0.8 -5.6 -1.6 -8 h -36 C 143.2 317.556 142.4 320.756 142.4 323.156 z" stroke-linecap="round"/>
</g>
		<g transform="matrix(1 0 0 1 0.8 79.951)" id="Layer_1">
<path style="stroke: none; stroke-width: 1; stroke-dasharray: none; stroke-linecap: butt; stroke-dashoffset: 0; stroke-linejoin: miter; stroke-miterlimit: 4; is-custom-font: none; font-file-url: none; fill: rgb(229,106,14); fill-rule: nonzero; opacity: 1;" transform=" translate(-248.8, -327.956)" d="M 248.8 354.356 c -12 0 -21.6 -19.2 -21.6 -31.2 s 9.6 -21.6 21.6 -21.6 s 21.6 9.6 21.6 21.6 S 260.8 354.356 248.8 354.356 z" stroke-linecap="round"/>
</g>
		<g transform="matrix(1 0 0 1 0.8 75.951)" id="Layer_1">
<path style="stroke: none; stroke-width: 1; stroke-dasharray: none; stroke-linecap: butt; stroke-dashoffset: 0; stroke-linejoin: miter; stroke-miterlimit: 4; is-custom-font: none; font-file-url: none; fill: rgb(119,172,191); fill-rule: nonzero; opacity: 1;" transform=" translate(-248.8, -323.956)" d="M 248.8 345.556 c -12 0 -21.6 -9.6 -21.6 -21.6 s 9.6 -21.6 21.6 -21.6 s 21.6 9.6 21.6 21.6 S 260.8 345.556 248.8 345.556 z" stroke-linecap="round"/>
</g>
		<g transform="matrix(1 0 0 1 0.8 75.151)" id="Layer_1">
<path style="stroke: none; stroke-width: 1; stroke-dasharray: none; stroke-linecap: butt; stroke-dashoffset: 0; stroke-linejoin: miter; stroke-miterlimit: 4; is-custom-font: none; font-file-url: none; fill: rgb(232,217,24); fill-rule: nonzero; opacity: 1;" transform=" translate(-248.8, -323.156)" d="M 248.8 303.956 c 11.2 0 20 8.8 20 20 s -8.8 20 -20 20 c -11.2 0 -20 -8.8 -20 -20 C 228.8 312.756 238.4 303.956 248.8 303.956 M 248.8 299.156 c -13.6 0 -24 11.2 -24 24 c 0 13.6 11.2 24 24 24 c 13.6 0 24 -11.2 24 -24 C 272.8 310.356 262.4 299.156 248.8 299.156 L 248.8 299.156 z" stroke-linecap="round"/>
</g>
		<g transform="matrix(1 0 0 1 0.8 81.151)" id="Layer_1">
<path style="stroke: none; stroke-width: 1; stroke-dasharray: none; stroke-linecap: butt; stroke-dashoffset: 0; stroke-linejoin: miter; stroke-miterlimit: 4; is-custom-font: none; font-file-url: none; fill: rgb(83,154,173); fill-rule: nonzero; opacity: 1;" transform=" translate(-248.8, -329.156)" d="M 228.8 323.156 c 0 11.2 8.8 20 20 20 c 11.2 0 20 -8.8 20 -20 c 0 -3.2 -0.8 -5.6 -1.6 -8 h -36 C 229.6 317.556 228.8 320.756 228.8 323.156 z" stroke-linecap="round"/>
</g>
		<g transform="matrix(1 0 0 1 87.2 79.951)" id="Layer_1">
<path style="stroke: none; stroke-width: 1; stroke-dasharray: none; stroke-linecap: butt; stroke-dashoffset: 0; stroke-linejoin: miter; stroke-miterlimit: 4; is-custom-font: none; font-file-url: none; fill: rgb(229,106,14); fill-rule: nonzero; opacity: 1;" transform=" translate(-335.2, -327.956)" d="M 335.2 354.356 c -12 0 -21.6 -19.2 -21.6 -31.2 s 9.6 -21.6 21.6 -21.6 s 21.6 9.6 21.6 21.6 S 347.2 354.356 335.2 354.356 z" stroke-linecap="round"/>
</g>
		<g transform="matrix(1 0 0 1 87.2 75.951)" id="Layer_1">
<path style="stroke: none; stroke-width: 1; stroke-dasharray: none; stroke-linecap: butt; stroke-dashoffset: 0; stroke-linejoin: miter; stroke-miterlimit: 4; is-custom-font: none; font-file-url: none; fill: rgb(119,172,191); fill-rule: nonzero; opacity: 1;" transform=" translate(-335.2, -323.956)" d="M 335.2 345.556 c -12 0 -21.6 -9.6 -21.6 -21.6 s 9.6 -21.6 21.6 -21.6 s 21.6 9.6 21.6 21.6 S 347.2 345.556 335.2 345.556 z" stroke-linecap="round"/>
</g>
		<g transform="matrix(1 0 0 1 87.2 75.151)" id="Layer_1">
<path style="stroke: none; stroke-width: 1; stroke-dasharray: none; stroke-linecap: butt; stroke-dashoffset: 0; stroke-linejoin: miter; stroke-miterlimit: 4; is-custom-font: none; font-file-url: none; fill: rgb(232,217,24); fill-rule: nonzero; opacity: 1;" transform=" translate(-335.2, -323.156)" d="M 335.2 303.956 c 11.2 0 20 8.8 20 20 s -8.8 20 -20 20 s -20 -8.8 -20 -20 S 324.8 303.956 335.2 303.956 M 335.2 299.156 c -13.6 0 -24 11.2 -24 24 c 0 13.6 11.2 24 24 24 c 13.6 0 24 -11.2 24 -24 C 359.2 310.356 348.8 299.156 335.2 299.156 L 335.2 299.156 z" stroke-linecap="round"/>
</g>
		<g transform="matrix(1 0 0 1 87.2 81.151)" id="Layer_1">
<path style="stroke: none; stroke-width: 1; stroke-dasharray: none; stroke-linecap: butt; stroke-dashoffset: 0; stroke-linejoin: miter; stroke-miterlimit: 4; is-custom-font: none; font-file-url: none; fill: rgb(83,154,173); fill-rule: nonzero; opacity: 1;" transform=" translate(-335.2, -329.156)" d="M 315.2 323.156 c 0 11.2 8.8 20 20 20 s 20 -8.8 20 -20 c 0 -3.2 -0.8 -5.6 -1.6 -8 h -36 C 316 317.556 315.2 320.756 315.2 323.156 z" stroke-linecap="round"/>
</g>
		<g transform="matrix(1 0 0 1 -182.4 133.551)" id="Layer_1">
<path style="stroke: none; stroke-width: 1; stroke-dasharray: none; stroke-linecap: butt; stroke-dashoffset: 0; stroke-linejoin: miter; stroke-miterlimit: 4; is-custom-font: none; font-file-url: none; fill: rgb(122,132,135); fill-rule: nonzero; opacity: 1;" transform=" translate(-65.6, -381.556)" d="M 70.4 381.556 c 0 2.4 -2.4 4.8 -4.8 4.8 s -4.8 -2.4 -4.8 -4.8 s 2.4 -4.8 4.8 -4.8 C 68 376.756 70.4 378.356 70.4 381.556 z" stroke-linecap="round"/>
</g>
</g>
</g>
</svg>